<svg xmlns="http://www.w3.org/2000/svg" viewBox="0 0 24 24" class="ae c0 ds dt du aw "><path fill="#000000" fill-rule="evenodd" d="M11.9997441,17.6385638 L18.0909417,12.5244974 L19.0439315,11.5715076 C19.6560764,10.95965 20,10.1296205 20,9.26411999 C20,8.39861947 19.6560764,7.56858999 19.0439315,6.95673237 C18.43141,6.34392359 17.6013805,6 16.73588,6 C15.8703795,6 15.04035,6.34392359 14.4281605,6.95640048 L11.9997441,9.38481688 L9.57132771,6.9564005 C8.29680941,5.68188223 6.230407,5.68188225 4.95588872,6.95640053 C3.68137044,8.23091881 3.68137042,10.2973212 4.95588866,11.5718395 L5.90854655,12.5244974 L11.9997441,17.6385638 Z M11.9997441,6.55638976 L13.0156962,5.54043764 C14.002486,4.55411099 15.3406085,4 16.73588,4 C18.1319762,4 19.4708558,4.55476617 20.4578131,5.54218691 C21.4452338,6.52914425 22,7.86802382 22,9.26411999 C22,10.6602162 21.4452338,11.9990957 20.4578131,12.9860531 L19.4436102,14.0002559 L12.0061741,20.2446014 C12.0036953,20.2466827 9.5202632,18.1652342 4.55587795,14.0002559 L3.5416751,12.9860531 C1.48610828,10.9304862 1.4861083,7.59775382 3.54167516,5.54218697 C5.59724201,3.48662011 8.92997437,3.48662009 10.9855413,5.54218691 L11.9997441,6.55638976 Z"/></svg>